<svg width="72" height="76" viewBox="0 0 72 76" fill="none" xmlns="http://www.w3.org/2000/svg">
<path d="M69.0004 9.19026L46.7381 0.280677C44.574 -0.522484 42.3027 0.560167 41.5097 2.55431L39.9543 6.43366C39.7729 6.92142 39.6808 7.41397 39.6808 7.90053C39.6808 8.70848 39.9333 9.49189 40.3768 10.1538L36.7931 18.3925H35.2095L31.6282 10.1574C32.0741 9.49429 32.3266 8.70968 32.3266 7.90053C32.3266 7.41517 32.2345 6.92142 32.0424 6.40194L30.4995 2.5567C29.7035 0.556576 27.534 -0.566174 25.24 0.290252L3.00947 9.18906C1.46 9.8043 0.45874 11.2814 0.45874 12.9505C0.45874 13.4359 0.550906 13.9296 0.743019 14.4497L2.2865 18.2943C2.86822 19.7582 4.22019 20.72 5.77445 20.8241L16.975 46.5833H13.9413C11.9143 46.5833 10.2643 48.2333 10.2643 50.2604C10.2643 51.2545 10.6527 52.1785 11.3355 52.844C11.5636 53.0786 11.8245 53.2624 12.0992 53.424C10.9914 54.5677 10.3014 56.1207 10.3014 57.8354C10.3014 58.3106 10.3516 58.763 10.4528 59.2155L14.1843 75.9999H52.9048L58.2253 53.825C63.0167 53.1702 66.6459 49.0838 66.6459 44.132C66.6459 39.9318 63.9653 36.2548 60.1165 34.898L66.233 20.8241C67.7872 20.72 69.1404 19.7582 69.7215 18.2979L71.2764 14.4192C71.4565 13.9296 71.5487 13.4371 71.5487 12.9505C71.5487 11.2814 70.5474 9.8043 69.0004 9.19026V9.19026ZM40.3672 16.3259L44.1077 17.9035L45.0605 15.6449L41.3452 14.0769L42.3727 11.7176L63.7912 20.2897L62.599 23.0343L47.3377 16.6114L46.388 18.8719L61.6217 25.2822L60.4181 28.0508L45.7919 21.8978C45.7003 19.9515 44.1006 18.3925 42.1322 18.3925H39.4677L40.3672 16.3259ZM27.4472 48.6044C28.8178 46.5714 31.0998 45.3576 33.5523 45.3576C36.0049 45.3576 38.2875 46.5714 39.6574 48.6044C40.475 49.8145 40.9065 51.2347 40.9065 52.7118C40.9065 54.1888 40.475 55.6096 39.6574 56.8192C38.2875 58.8528 36.0049 60.0659 33.5523 60.0659C29.4964 60.0659 26.1982 56.7677 26.1982 52.7118C26.1982 51.2347 26.6297 49.8145 27.4472 48.6044V48.6044ZM29.8753 42.9063C28.4401 42.9063 27.1701 42.1013 26.5561 40.7942C26.5034 40.6853 26.4789 40.568 26.437 40.4549H40.6784C40.1745 41.8853 38.8279 42.9063 37.2306 42.9063H29.8753ZM16.8757 40.2071L21.5947 38.2256C22.01 39.1915 22.8347 39.9306 23.8438 40.2592C23.8671 40.3927 23.8893 40.5273 23.921 40.6584L18.1331 43.099L16.8757 40.2071ZM42.1322 20.8439C42.8078 20.8439 43.3578 21.3945 43.3578 22.0696V28.198H32.3266C30.2996 28.198 28.6496 29.848 28.6496 31.8751C28.6496 32.8691 29.038 33.7932 29.7209 34.4587C30.4085 35.1637 31.3326 35.5521 32.3266 35.5521H43.3578V36.7778C43.3578 37.4535 42.8078 38.0035 42.1322 38.0035H24.9725C24.2974 38.0035 23.7468 37.4535 23.7468 36.7778V30.5758C23.7468 30.0024 23.8779 29.4411 24.1317 28.9419L27.1582 22.8775C27.7806 21.6417 29.0739 20.8439 30.4516 20.8439H42.1322ZM47.3551 46.5833H41.1907C40.6886 45.9573 40.1183 45.4031 39.4911 44.9249C41.171 44.263 42.4655 42.8817 43.0245 41.188L47.1169 42.9099C47.0642 43.3132 47.0349 43.719 47.0349 44.132C47.0349 44.9704 47.1504 45.788 47.3551 46.5833V46.5833ZM43.3578 33.1008H32.3266C31.9993 33.1008 31.6976 32.9757 31.4541 32.7261C31.226 32.5041 31.101 32.2024 31.101 31.8751C31.101 31.2 31.6516 30.6494 32.3266 30.6494H43.3578V33.1008ZM21.9436 27.8389C21.6216 28.4727 21.4157 29.1723 21.3361 29.8923L13.7719 33.069L12.5684 30.3005L22.8826 25.9573L21.9436 27.8389ZM21.2955 32.5675V35.6946L15.8989 37.961L14.7493 35.3169L21.2955 32.5675ZM42.6199 49.0347H48.3671C48.9297 50.0019 49.6455 50.8637 50.4941 51.5807L48.6442 56.3888H42.6199C43.0909 55.2284 43.3578 53.9901 43.3578 52.7118C43.3578 51.4334 43.0909 50.1958 42.6199 49.0347ZM47.7483 40.5165L44.8104 39.2807C45.4256 38.6223 45.8092 37.7462 45.8092 36.7778V36.2841L49.3893 37.794C48.6981 38.6056 48.1415 39.5225 47.7483 40.5165ZM51.4326 35.995L45.8092 33.6232V30.4974L55.2215 34.4587C53.8546 34.6831 52.5822 35.2224 51.4326 35.995ZM58.2379 33.069L45.8092 27.8377V24.5652L59.4414 30.3017L58.2379 33.069ZM30.4516 18.3925C28.1558 18.3925 26.0031 19.7199 24.9653 21.7829L24.5632 22.5896L11.5905 28.0508L10.3869 25.2834L31.6414 16.3259L32.5409 18.3925H30.4516ZM4.56252 17.3841L3.03041 13.5658C2.95201 13.3551 2.91012 13.142 2.91012 12.9505C2.91012 12.291 3.30512 11.7087 3.91796 11.4651L26.1222 2.57884C27.0612 2.23053 27.9093 2.6758 28.2229 3.46759L29.755 7.2853C29.8334 7.49596 29.8753 7.70962 29.8753 7.90053C29.8753 8.3458 29.6963 8.75995 29.363 9.07116C29.2283 9.19984 29.0506 9.31295 28.8704 9.38596L25.7326 10.6362L26.6393 12.9128L29.6377 11.7188L30.6695 14.0918L9.40902 23.0367L8.21625 20.2927L24.2017 13.8931L23.2908 11.6183L6.64823 18.2788C6.55187 18.3165 6.44774 18.3446 6.40106 18.356C5.62902 18.4625 4.8492 18.1058 4.56252 17.3841ZM19.1104 45.3481L24.9701 42.8769C25.6518 43.8046 26.5657 44.506 27.619 44.9202C26.99 45.3995 26.4178 45.9549 25.9139 46.5833H19.6472L19.1104 45.3481ZM50.9705 73.5485H16.1503L12.8443 58.681C12.7821 58.4039 12.7509 58.1268 12.7509 57.8354C12.7509 55.6868 14.5003 53.9375 16.6488 53.9375C18.23 53.9375 19.6418 54.8777 20.2487 56.3338L25.3807 68.6457H32.5523C33.0598 70.0689 34.4082 71.0971 36.0037 71.0971C38.0308 71.0971 39.6808 69.4477 39.6808 67.42C39.6808 67.268 39.6539 67.1226 39.6353 66.9754L43.9061 64.84L42.809 62.6472L38.5485 64.7778C37.8877 64.1404 36.993 63.743 36.0037 63.743C34.4082 63.743 33.0598 64.7712 32.5523 66.1944H27.0145L22.5128 55.39C21.5247 53.0182 19.2241 51.4861 16.65 51.4861H13.9413C13.6139 51.4861 13.3123 51.361 13.0687 51.1114C12.8407 50.8894 12.7156 50.5878 12.7156 50.2604C12.7156 49.5853 13.2662 49.0347 13.9413 49.0347H24.4848C24.0143 50.1958 23.7468 51.4334 23.7468 52.7118C23.7468 58.1185 28.1457 62.5173 33.5523 62.5173C36.5453 62.5173 39.3379 61.1498 41.1907 58.8402H50.3284L56.218 43.5239C56.3634 43.1493 56.7141 42.9063 57.1103 42.9063C57.637 42.9063 58.0661 43.3354 58.0661 43.8746C58.0661 43.9189 58.0613 43.9949 58.0392 44.0907L50.9705 73.5485ZM34.778 67.42C34.778 66.745 35.3286 66.1944 36.0037 66.1944C36.6794 66.1944 37.2294 66.745 37.2294 67.42C37.2294 68.0957 36.6794 68.6457 36.0037 68.6457C35.3286 68.6457 34.778 68.0957 34.778 67.42ZM64.1946 44.132C64.1946 47.5014 61.9526 50.3316 58.8555 51.1934L60.4253 44.6502C60.487 44.3833 60.5175 44.1224 60.5175 43.8626C60.5175 41.9834 58.989 40.4549 57.1103 40.4549C55.6979 40.4549 54.4519 41.3095 53.9306 42.6382L51.4439 49.1071C50.9412 48.5667 50.5109 47.9586 50.1901 47.286C49.7227 46.2967 49.4863 45.235 49.4863 44.132C49.4863 43.5508 49.5551 42.9883 49.6982 42.4041C50.0806 40.793 51.0064 39.3519 52.3177 38.3405C53.611 37.3183 55.1749 36.7778 56.8404 36.7778C57.3396 36.7778 57.7902 36.8221 58.2403 36.9155C61.6905 37.5768 64.1946 40.6129 64.1946 44.132V44.132ZM68.9896 13.5364L67.4437 17.3888C67.2013 17.9981 66.619 18.3925 65.9595 18.3925C65.8446 18.3925 65.7207 18.3716 65.6716 18.3668C65.5603 18.3446 65.4556 18.3153 65.3736 18.2848L43.146 9.38895C42.9581 9.31295 42.7803 9.19984 42.6445 9.07116L42.6385 9.06518C42.3111 8.75995 42.1322 8.3458 42.1322 7.90053C42.1322 7.70962 42.1741 7.49596 42.2399 7.31462L43.7858 3.4628C44.0281 2.85355 44.6105 2.45855 45.27 2.45855C45.4609 2.45855 45.6746 2.50044 45.8571 2.56627L68.0937 11.4663C68.7029 11.7087 69.0973 12.291 69.0973 12.9505C69.0973 13.142 69.0554 13.3551 68.9896 13.5364Z" fill="white"/>
</svg>
