<svg width="62" height="76" viewBox="0 0 62 76" fill="none" xmlns="http://www.w3.org/2000/svg">
<path d="M57.9676 31.871H34.6773V29.4194H36.5968L42.6672 19.3017C43.8547 17.3217 44.4838 15.0538 44.4838 12.7447C44.4838 5.71724 38.7665 0 31.7391 0H30.2619C23.2333 0 17.516 5.71724 17.516 12.7447C17.516 15.0538 18.1451 17.3217 19.3314 19.3029L25.403 29.4194H27.3225V31.871H4.03216C2.00491 31.871 0.354736 33.5211 0.354736 35.5484V72.3226C0.354736 74.3498 2.00491 76 4.03216 76H57.9676C59.9949 76 61.6451 74.3498 61.6451 72.3226V35.5484C61.6451 33.5211 59.9949 31.871 57.9676 31.871ZM37.1289 73.5484H32.2257V61.2903H39.5805V53.9355H44.4838V44.129H34.6773V39.2258H54.2902V51.4839H49.387V58.8387H44.4838V66.1935H37.1289V73.5484ZM42.0322 12.7447C42.0322 13.5671 41.9166 14.3787 41.7245 15.1706C37.5252 13.5437 34.6773 9.47905 34.6773 4.90323V2.88436C38.9245 4.15326 42.0322 8.09044 42.0322 12.7447ZM27.3225 2.88436V4.90323C27.3225 9.47905 24.4746 13.5437 20.2753 15.1706C20.0832 14.3787 19.9676 13.5671 19.9676 12.7447C19.9676 8.09044 23.0752 4.15326 27.3225 2.88436ZM21.4335 18.0411C21.3221 17.855 21.2389 17.6563 21.1396 17.4653C26.2852 15.4794 29.7741 10.5049 29.7741 4.90323V2.47615C29.9369 2.46897 30.0967 2.45161 30.2607 2.45161H31.7379C31.9031 2.45161 32.0629 2.46897 32.2257 2.47615V4.90323C32.2257 10.5049 35.7146 15.4794 40.8602 17.4642C40.7609 17.6551 40.6777 17.8538 40.5663 18.0399L35.2094 26.9677H26.7916L21.4335 18.0411ZM32.2257 29.4194V44.129H29.7741V29.4194H32.2257ZM27.3225 44.129H22.4193V39.2258H27.3225V44.129ZM2.80635 72.3226V35.5484C2.80635 34.8732 3.35581 34.3226 4.03216 34.3226H27.3225V36.7742H19.9676V46.5806H42.0322V51.4839H37.1289V58.8387H29.7741V73.5484H4.03216C3.35581 73.5484 2.80635 72.9989 2.80635 72.3226ZM59.1934 72.3226C59.1934 72.9989 58.644 73.5484 57.9676 73.5484H39.5805V68.6452H46.9354V61.2903H51.8386V53.9355H56.7418V36.7742H34.6773V34.3226H57.9676C58.644 34.3226 59.1934 34.8732 59.1934 35.5484V72.3226Z" fill="white"/>
</svg>
